<svg id="Capa_1" enable-background="new 0 0 512 512" height="512" viewBox="0 0 512 512" width="512" xmlns="http://www.w3.org/2000/svg"><g><g><path d="m406.76 225.47v61.06c0 8.28-6.71 15-15 15-8.28 0-15-6.72-15-15v-61.06c0-8.28 6.72-15 15-15 3.3 0 6.35 1.07 8.83 2.87 3.74 2.73 6.17 7.15 6.17 12.13z" fill="#dfe7f4"/></g><path d="m406.76 225.47v61.06c0 8.28-6.71 15-15 15v-91.06c3.3 0 6.35 1.07 8.83 2.87 3.74 2.73 6.17 7.15 6.17 12.13z" fill="#c7cfe1"/><g><path d="m135.24 225.47v61.06c0 8.28-6.72 15-15 15-8.29 0-15-6.72-15-15v-61.06c0-8.28 6.71-15 15-15 8.28 0 15 6.72 15 15z" fill="#dfe7f4"/></g><path d="m135.24 225.47v61.06c0 8.28-6.72 15-15 15v-91.06c8.28 0 15 6.72 15 15z" fill="#c7cfe1"/><g><path d="m301.53 120.24c0 8.28-6.72 15-15 15h-61.05c-8.29 0-15-6.72-15-15 0-8.29 6.71-15 15-15h61.05c8.28 0 15 6.71 15 15z" fill="#dfe7f4"/></g><g><path d="m301.53 391.76c0 8.29-6.72 15-15 15h-61.05c-8.29 0-15-6.71-15-15 0-8.28 6.71-15 15-15h61.05c8.28 0 15 6.72 15 15z" fill="#dfe7f4"/></g><path d="m301.53 391.76c0 8.29-6.72 15-15 15h-30.53v-30h30.53c8.28 0 15 6.72 15 15z" fill="#c7cfe1"/><path d="m301.53 120.24c0 8.28-6.72 15-15 15h-30.53v-30h30.53c8.28 0 15 6.71 15 15z" fill="#c7cfe1"/><path d="m512 120.24c0 66.3-53.94 120.23-120.24 120.23s-120.23-53.93-120.23-120.23 53.93-120.24 120.23-120.24 120.24 53.94 120.24 120.24z" fill="#6aa9ff"/><path d="m512 391.76c0 66.3-53.94 120.24-120.24 120.24s-120.23-53.94-120.23-120.24 53.93-120.23 120.23-120.23 120.24 53.93 120.24 120.23z" fill="#fabe2c"/><path d="m240.48 120.24c0 66.3-53.94 120.23-120.24 120.23s-120.24-53.93-120.24-120.23 53.94-120.24 120.24-120.24 120.24 53.94 120.24 120.24z" fill="#7ed8f6"/><path d="m240.48 391.76c0 66.3-53.94 120.24-120.24 120.24s-120.24-53.94-120.24-120.24 53.94-120.23 120.24-120.23 120.24 53.93 120.24 120.23z" fill="#6aa9ff"/><path d="m240.48 391.76c0 66.3-53.94 120.24-120.24 120.24v-240.47c66.3 0 120.24 53.93 120.24 120.23z" fill="#4987ea"/><path d="m120.24 240.47v-240.47c66.3 0 120.24 53.94 120.24 120.24s-53.94 120.23-120.24 120.23z" fill="#6aa9ff"/><path d="m180.48 120.24c0 8.28-6.72 15-15 15h-30.24v30.23c0 8.29-6.72 15-15 15-8.29 0-15-6.71-15-15v-30.23h-30.24c-8.28 0-15-6.72-15-15 0-8.29 6.72-15 15-15h30.24v-30.24c0-8.28 6.71-15 15-15 8.28 0 15 6.72 15 15v30.24h30.24c8.28 0 15 6.71 15 15z" fill="#f0f7ff"/><path d="m162.83 413.14c5.86 5.86 5.86 15.36 0 21.22-5.852 5.852-15.355 5.855-21.21 0l-21.38-21.38-21.38 21.38c-5.841 5.841-15.354 5.866-21.22 0-5.85-5.86-5.85-15.36 0-21.22l21.38-21.38-21.38-21.38c-5.85-5.86-5.85-15.35 0-21.21 5.86-5.86 15.36-5.86 21.22 0l21.38 21.38 21.38-21.38c5.86-5.86 15.35-5.86 21.21 0s5.86 15.35 0 21.21l-21.38 21.38z" fill="#f0f7ff"/><path d="m512 120.24c0 66.3-53.94 120.23-120.24 120.23v-240.47c66.3 0 120.24 53.94 120.24 120.24z" fill="#4987ea"/><path d="m452 120.24c0 8.28-6.72 15-15 15h-90.47c-8.29 0-15-6.72-15-15 0-8.29 6.71-15 15-15h90.47c8.28 0 15 6.71 15 15z" fill="#f0f7ff"/><path d="m512 391.76c0 66.3-53.94 120.24-120.24 120.24v-240.47c66.3 0 120.24 53.93 120.24 120.23z" fill="#ff9100"/><g><path d="m452 421.76c0 8.29-6.72 15-15 15h-90.47c-8.29 0-15-6.71-15-15 0-8.28 6.71-15 15-15h90.47c8.28 0 15 6.72 15 15z" fill="#334973"/></g><g><path d="m452 361.76c0 8.29-6.72 15-15 15h-90.47c-8.29 0-15-6.71-15-15 0-8.28 6.71-15 15-15h90.47c8.28 0 15 6.72 15 15z" fill="#334973"/></g><path d="m452 421.76c0 8.29-6.72 15-15 15h-45.24v-30h45.24c8.28 0 15 6.72 15 15z" fill="#1f3259"/><path d="m452 361.76c0 8.29-6.72 15-15 15h-45.24v-30h45.24c8.28 0 15 6.72 15 15z" fill="#1f3259"/><g fill="#dfe7f4"><path d="m437 135.24h-45.24v-30h45.24c8.28 0 15 6.71 15 15 0 8.28-6.72 15-15 15z"/><path d="m162.83 370.38-21.38 21.38 21.38 21.38c5.86 5.86 5.86 15.36 0 21.22-5.852 5.852-15.355 5.855-21.21 0l-21.38-21.38v-42.43l21.38-21.38c5.86-5.86 15.35-5.86 21.21 0s5.86 15.35 0 21.21z"/><path d="m180.48 120.24c0 8.28-6.72 15-15 15h-30.24v30.23c0 8.29-6.72 15-15 15v-120.47c8.28 0 15 6.72 15 15v30.24h30.24c8.28 0 15 6.71 15 15z"/></g></g></svg>